<?xml version="1.0" encoding="UTF-8" standalone="no"?>
<!-- Created with Inkscape (http://www.inkscape.org/) -->

<svg
   width="1920"
   height="1080"
   viewBox="0 0 508 285.74999"
   version="1.1"
   id="svg5"
   xml:space="preserve"
   inkscape:version="1.2.1 (9c6d41e, 2022-07-14)"
   sodipodi:docname="bg23.svg"
   xmlns:inkscape="http://www.inkscape.org/namespaces/inkscape"
   xmlns:sodipodi="http://sodipodi.sourceforge.net/DTD/sodipodi-0.dtd"
   xmlns:xlink="http://www.w3.org/1999/xlink"
   xmlns="http://www.w3.org/2000/svg"
   xmlns:svg="http://www.w3.org/2000/svg"><sodipodi:namedview
     id="namedview7"
     pagecolor="#ffffff"
     bordercolor="#000000"
     borderopacity="0.25"
     inkscape:showpageshadow="2"
     inkscape:pageopacity="0.0"
     inkscape:pagecheckerboard="0"
     inkscape:deskcolor="#d1d1d1"
     inkscape:document-units="mm"
     showgrid="false"
     showguides="true"
     inkscape:zoom="0.41439613"
     inkscape:cx="949.57451"
     inkscape:cy="518.82724"
     inkscape:window-width="1431"
     inkscape:window-height="728"
     inkscape:window-x="0"
     inkscape:window-y="25"
     inkscape:window-maximized="0"
     inkscape:current-layer="layer1" /><defs
     id="defs2"><linearGradient
       inkscape:collect="always"
       id="linearGradient1100"><stop
         style="stop-color:#aba7a4;stop-opacity:1;"
         offset="0"
         id="stop1096" /><stop
         style="stop-color:#f48534;stop-opacity:0;"
         offset="1"
         id="stop1098" /></linearGradient><linearGradient
       inkscape:collect="always"
       id="linearGradient2962"><stop
         style="stop-color:#b7a38c;stop-opacity:1;"
         offset="0"
         id="stop2958" /><stop
         style="stop-color:#f48534;stop-opacity:0;"
         offset="1"
         id="stop2960" /></linearGradient><inkscape:path-effect
       effect="spiro"
       id="path-effect1594"
       is_visible="true"
       lpeversion="1" /><inkscape:path-effect
       effect="spiro"
       id="path-effect1594-9"
       is_visible="true"
       lpeversion="1" /><linearGradient
       inkscape:collect="always"
       xlink:href="#linearGradient1100"
       id="linearGradient2964"
       x1="404.65479"
       y1="149.8203"
       x2="352.84778"
       y2="65.108818"
       gradientUnits="userSpaceOnUse" /><linearGradient
       inkscape:collect="always"
       xlink:href="#linearGradient2962"
       id="linearGradient1094"
       gradientUnits="userSpaceOnUse"
       x1="404.65479"
       y1="149.8203"
       x2="352.84778"
       y2="65.108818"
       gradientTransform="rotate(-80.448054,123.72599,283.21312)" /></defs><g
     inkscape:label="Layer 1"
     inkscape:groupmode="layer"
     id="layer1"><path
       id="path459"
       style="opacity:0.23157895;fill:url(#linearGradient2964);fill-opacity:1;stroke-width:116.944"
       d="M 315.28618 0 L 507.76539 71.400293 L 448.71163 218.88431 L 296.51575 166.47924 L 337.5117 59.54882 L 302.33917 75.378861 L 263.53068 182.59144 L 466.21289 256.67374 L 508 146.39985 L 508 44.143559 L 395.47974 0 L 315.28618 0 z M 460.14866 0 L 508 18.250049 L 508 0 L 460.14866 0 z M 369.93763 44.954362 L 328.8869 150.85798 L 433.62831 186.46562 L 474.62736 85.263529 L 369.93763 44.954362 z M 382.86914 74.693632 L 443.81994 98.163517 L 419.95111 157.08395 L 358.96724 136.35395 L 382.86914 74.693632 z M 270.49202 89.71287 L 234.83838 105.75995 L 198.27885 206.76619 L 414.39693 285.75 L 501.50789 285.75 C 503.55276 280.51402 505.65569 275.11904 508 269.06523 L 508 198.8752 L 475.43971 280.16119 L 229.88829 195.60822 L 270.49202 89.71287 z " /><path
       id="path1092"
       style="opacity:0.23859649;fill:url(#linearGradient1094);fill-opacity:1;stroke-width:116.944"
       d="M -123.77269,47.31193 -21.421976,-130.65039 114.21778,-47.941601 37.283616,93.447985 -61.36133,35.276187 -51.587354,72.587945 47.698839,128.64942 154.38748,-58.929366 52.576695,-118.43618 -48.261881,-135.40477 -110.46522,-31.769797 Z m 24.038743,-142.854053 25.937562,-44.159467 -17.997037,-3.02845 z M -70.372641,0.87800086 27.250665,58.933425 79.745609,-38.44702 -13.249924,-95.671295 Z M -38.899797,-6.9392404 -5.6410328,-63.150358 48.501675,-29.835089 17.939317,26.863299 Z"
       sodipodi:nodetypes="cccccccccccccccccccccccccc" /></g></svg>
