<svg xmlns="http://www.w3.org/2000/svg" viewBox="0 0 141.732 141.732" width="100" height="100">
  <g>
    <rect width="141.732" height="141.732" fill="#fff"/>
    <g>
      <path fill="#1434CB" d="M60.614 70.866l-7.152-27.632h-11.35l7.152 27.632h11.35zm44.41-27.632l-10.074.012c-2.178 0-3.8.601-4.751 2.801l-13.477 24.819h11.338l2.257-6.241h13.86l1.31 6.241h10.003l-8.73-27.632h-1.736zm-7.607 17.697c.89-2.386 4.291-11.618 4.291-11.618-.063.106.886-2.407 1.427-3.976l.731 3.568s2.057 9.984 2.489 12.026h-8.938zm-26.485-12.401c0-3.696 5.453-3.904 7.847-1.443l2.558-6.069s-3.862-2.027-7.963-2.027c-4.38 0-14.799 1.919-14.799 11.244 0 8.775 12.227 8.883 12.227 13.497 0 4.614-10.968 3.787-14.589.881l-2.655 6.279s3.925 2.341 9.715 2.341c5.789 0 15.26-3.008 15.26-11.585-.007-8.88-12.601-9.401-12.601-13.118zm-21.856-5.296l-18.141 27.632h11.41l3.513-9.738 6.518.004c.75 2.735 3.043 9.734 3.043 9.734h10.055l-8.708-27.632h-7.69z"/>
    </g>
  </g>
</svg>
